<?xml version="1.0" encoding="iso-8859-1"?>
<!-- Uploaded to: SVG Repo, www.svgrepo.com, Generator: SVG Repo Mixer Tools -->
<svg height="800px" width="800px" version="1.1" id="Layer_1" xmlns="http://www.w3.org/2000/svg" xmlns:xlink="http://www.w3.org/1999/xlink" 
	 viewBox="0 0 512.001 512.001" xml:space="preserve">
<path style="fill:#AEBB3F;" d="M159.945,207.303c34.669,19.323,55.592,53.753,59.148,90.479
	c-33.106,16.291-73.395,16.603-108.063-2.72c-34.669-19.323-55.592-53.753-59.148-90.479
	C84.988,188.292,125.277,187.98,159.945,207.303z"/>
<path style="fill:#7FA339;" d="M352.054,207.303c-34.669,19.323-55.592,53.753-59.148,90.479
	c33.106,16.291,73.395,16.603,108.063-2.72c34.669-19.323,55.592-53.753,59.148-90.479
	C427.011,188.292,386.722,187.98,352.054,207.303z"/>
<polygon style="fill:#F73725;" points="180.666,365.219 190.584,505.736 321.415,505.736 331.333,365.219 "/>
<polygon style="fill:#FF857F;" points="186.778,93.2 186.778,140.942 255.999,162.729 325.221,140.942 325.221,93.2 "/>
<path style="fill:#FB5E52;" d="M255.999,210.162c38.23,0,69.221-30.991,69.221-69.22H186.778
	C186.778,179.172,217.769,210.162,255.999,210.162z"/>
<path d="M463.724,196.436c-36.72-18.069-79.954-16.981-115.648,2.914c-34.429,19.19-57.659,53.549-62.803,92.515l-21.104,11.763
	v-89.816c38.847-4.095,69.221-37.043,69.221-76.957v-47.74c0-4.512-3.658-8.17-8.17-8.17h-23.657V8.17c0-4.512-3.658-8.17-8.17-8.17
	c-4.512,0-8.17,3.658-8.17,8.17v72.775h-58.446V8.17c0-4.512-3.658-8.17-8.17-8.17c-4.512,0-8.17,3.658-8.17,8.17v72.775h-23.658
	c-4.512,0-8.17,3.658-8.17,8.17v47.741c0,39.914,30.375,72.861,69.221,76.957v89.816l-21.103-11.763
	c-5.144-38.968-28.375-73.326-62.803-92.515c-35.695-19.895-78.929-20.984-115.648-2.914c-3.05,1.501-4.852,4.735-4.524,8.118
	c3.943,40.737,27.609,76.934,63.303,96.829c18.788,10.472,39.664,15.734,60.58,15.734c17.412,0,34.851-3.655,51.136-10.979
	l29.06,16.199v32.806h-78.057c-4.512,0-8.17,3.658-8.17,8.17c0,4.512,3.658,8.17,8.17,8.17h3.28l9.383,132.922
	c0.302,4.278,3.862,7.595,8.151,7.595h130.83c4.289,0,7.848-3.316,8.151-7.595l9.383-132.922h3.28c4.512,0,8.17-3.658,8.17-8.17
	s-3.658-8.17-8.17-8.17H264.17v-32.806l29.06-16.199c16.286,7.324,33.721,10.979,51.136,10.979
	c20.915-0.001,41.794-5.263,60.581-15.734c35.694-19.895,59.359-56.092,63.303-96.829
	C468.576,201.171,466.775,197.937,463.724,196.436z M115.009,287.109c-29.33-16.347-49.31-45.369-54.288-78.417
	c30.725-13.148,65.916-11.418,95.247,4.93c26.163,14.582,44.876,39.254,52.148,67.868L94.709,218.279
	c-3.94-2.196-8.918-0.783-11.114,3.159c-2.197,3.941-0.783,8.918,3.158,11.114l113.408,63.213
	C171.999,304.631,141.172,301.691,115.009,287.109z M313.801,495.66H198.198l-8.765-124.176h133.133L313.801,495.66z
	 M194.948,136.857V97.285h122.102v31.401h-97.592c-4.512,0-8.17,3.658-8.17,8.17c0,4.513,3.658,8.17,8.17,8.17h97.028
	c-4.007,29.811-29.597,52.88-60.488,52.88C222.336,197.907,194.948,170.52,194.948,136.857z M396.99,287.109
	c-26.165,14.583-56.991,17.523-85.152,8.657l113.408-63.215c3.941-2.197,5.356-7.173,3.158-11.114
	c-2.197-3.941-7.172-5.356-11.114-3.159l-113.406,63.212c7.27-28.614,25.985-53.286,52.148-67.868
	c29.33-16.349,64.521-18.078,95.246-4.93C446.3,241.74,426.32,270.762,396.99,287.109z"/>
</svg>